<?xml version="1.0" encoding="utf-8"?>
<!-- Generator: Adobe Illustrator 21.1.0, SVG Export Plug-In . SVG Version: 6.00 Build 0)  -->
<svg version="1.1" id="Vrstva_1" xmlns="http://www.w3.org/2000/svg" xmlns:xlink="http://www.w3.org/1999/xlink" x="0px" y="0px"
	 viewBox="0 0 234.1 181" style="enable-background:new 0 0 234.1 181;" xml:space="preserve">
<style type="text/css">
	.st0{fill:#4FCC3E;}
	.st1{fill:#FFFFFF;stroke:#000000;stroke-miterlimit:10;}
	.st2{fill:#5DBF41;}
	.st3{fill:#55A53A;}
	.st4{fill:none;}
	.st5{enable-background:new    ;}
	.st6{fill:#243D18;}
	.st7{display:none;fill:#7B7F79;enable-background:new    ;}
	.st8{font-family:'CocoGothicAlternate-UltLtIta';}
	.st9{font-size:12px;}
</style>
<path class="st0" d="M91.7,121.7h25c0,0,1-72-44-98C72.7,23.7,104.7,58.7,91.7,121.7z"/>
<path class="st1" d="M108.8,72.7"/>
<path class="st1" d="M140.7,121.7"/>
<path class="st2" d="M134.1,121.7h-30.4c0,0-1.2-87.5,53.5-119.2C157.2,2.6,118.3,45.1,134.1,121.7z"/>
<path class="st3" d="M147.2,121.7h-21.8c0,0-0.9-62.8,38.4-85.5C163.8,36.2,135.9,66.8,147.2,121.7z"/>
<rect x="21.4" y="115.3" class="st4" width="232.3" height="47.8"/>
<g class="st5">
	<path class="st6" d="M35.3,113.2c2.6,0.3,4.8,1,6.6,2.2c1.8,1.2,3.3,2.6,4.4,4.3c1.1,1.7,1.9,3.5,2.3,5.6c0.4,2,0.5,4.1,0.3,6.2
		c-0.2,1.8-0.7,3.5-1.4,5.2c-0.7,1.7-1.7,3.2-2.9,4.6c-1.2,1.4-2.7,2.5-4.4,3.5s-3.7,1.5-5.9,1.8c-0.5,0.1-1,0.1-1.6,0.2
		c-0.6,0-1.2,0-1.9,0l-1.7-0.1c-0.1,0.6-0.2,1-0.5,1.3c-0.3,0.3-0.8,0.5-1.4,0.5c-1.3,0-2.2-0.5-2.7-1.6c-0.1-0.1-0.1-0.3-0.2-0.5
		c-0.1-0.2-0.1-0.3-0.2-0.6c-0.8-0.2-1.4-0.5-2-0.9c-0.5-0.4-0.8-0.9-0.7-1.4c0-0.4,0.2-0.7,0.7-0.9c0.3-0.1,0.8-0.1,1.5,0
		c-0.1-1.4-0.1-2.9,0-4.6c0.1-1.6,0.3-3.2,0.5-4.8c0.2-1.6,0.4-3.1,0.7-4.5c0.3-1.4,0.6-2.6,0.9-3.5c0.3-0.9,0.6-1.8,1-2.7
		c0.4-0.9,0.8-1.6,1.3-2.3c-1.2,0.3-2.3,0.6-3.3,0.9c-1,0.3-1.8,0.5-2.5,0.5c-0.8,0-1.3-0.1-1.7-0.2c-0.4-0.1-0.6-0.3-0.8-0.6
		c-0.1-0.2-0.2-0.5-0.2-0.7c0-0.2,0-0.5,0-0.7c0-0.8,0.2-1.5,0.7-2.1c0.5-0.6,1.1-1.2,1.9-1.7c0.8-0.5,1.7-0.9,2.8-1.2
		c1.1-0.3,2.2-0.6,3.3-0.7c1.2-0.2,2.3-0.3,3.5-0.3C33.1,113,34.2,113,35.3,113.2z M42.6,131.3c0-1.6-0.1-3.1-0.5-4.5
		c-0.4-1.4-1-2.6-1.7-3.7c-0.8-1.1-1.7-2-2.8-2.6s-2.3-1.1-3.7-1.2c0.7,0.5,1.1,1.1,1.3,1.8c0.1,0.2,0,0.6-0.2,1
		c-0.2,0.4-0.3,0.9-0.5,1.2c-0.5,1.1-1.1,2.4-1.6,3.9c-0.5,1.5-1,3.1-1.5,4.7c-0.5,1.7-0.9,3.4-1.2,5.3c-0.4,1.8-0.6,3.7-0.8,5.5
		h0.3c1.2,0,2.3-0.1,3.4-0.3c1.4-0.2,2.6-0.6,3.8-1.1s2.2-1.3,3-2.3c0.8-0.9,1.5-2.1,2-3.3C42.4,134.4,42.6,132.9,42.6,131.3z"/>
	<path class="st6" d="M65.9,140.4c-0.4,0.7-0.9,1.4-1.5,2.2c-0.6,0.7-1.3,1.4-2.1,2c-0.8,0.6-1.6,1.1-2.6,1.5
		c-0.9,0.4-1.9,0.6-2.9,0.6c-0.9,0-1.7-0.2-2.5-0.5c-0.8-0.3-1.4-0.7-2-1.2c-0.6-0.5-1.1-1.1-1.5-1.8s-0.7-1.4-0.8-2.2
		c-0.2-1.5-0.1-3,0.4-4.5c0.5-1.5,1.2-2.9,2.1-4.2c0.9-1.3,2-2.3,3.2-3.1c1.2-0.8,2.5-1.2,3.8-1.2c0.8,0,1.5,0.2,2.1,0.6
		c0.5-0.1,1-0.2,1.4-0.2c1.2,0,2.2,0.3,2.9,1c0.7,0.7,1.2,1.5,1.5,2.4c0.3,1,0.4,2,0.3,3c-0.1,1.1-0.3,2-0.6,2.8
		c0.4,0.3,0.7,0.5,1.2,0.5c0.6,0,1.1-0.2,1.5-0.7c0.4-0.4,0.9-1,1.4-1.5c0.3-0.4,0.5-0.5,0.7-0.5c0.4,0.1,0.6,0.2,0.8,0.4
		c0.2,0.2,0.3,0.4,0.4,0.7c0,0.5-0.1,1-0.3,1.6c-0.2,0.5-0.5,1-1,1.5c-0.4,0.5-0.9,0.8-1.5,1.1c-0.6,0.3-1.2,0.4-1.8,0.4
		c-0.4,0-0.8,0-1.2-0.1C66.6,140.8,66.3,140.6,65.9,140.4z M58,142.5c0.6,0,1.2-0.2,1.7-0.6c0.5-0.4,1-0.9,1.3-1.5
		c0.4-0.6,0.7-1.3,0.9-2c0.2-0.7,0.3-1.5,0.3-2.2c-0.2-0.2-0.4-0.4-0.7-0.7c-0.2-0.3-0.5-0.7-0.7-1.1c-0.2-0.4-0.4-0.8-0.5-1.2
		c-0.1-0.4-0.2-0.8-0.3-1.3c0-0.1,0-0.3,0-0.4c0-0.1,0.1-0.2,0.1-0.3c-0.6,0.3-1.3,0.7-1.8,1.3c-0.6,0.6-1.1,1.3-1.5,2.1
		c-0.4,0.8-0.7,1.6-0.9,2.4c-0.2,0.9-0.3,1.7-0.2,2.4c0.1,0.4,0.1,0.8,0.3,1.1c0.1,0.4,0.3,0.7,0.4,1c0.2,0.3,0.4,0.5,0.7,0.7
		C57.4,142.4,57.7,142.5,58,142.5z"/>
	<path class="st6" d="M70.1,137.2c0.1-1.2,0.3-2.4,0.6-3.6c0.3-1.2,0.6-2.3,1-3.3s0.8-1.8,1.3-2.4c0.5-0.6,1-1,1.5-1
		c0.3,0,0.7,0,1.1,0.1s0.8,0.1,1.2,0.2c0.5,0.1,0.9,0.3,1.2,0.5c0.4,0.2,0.6,0.5,0.6,0.8c0,0.2,0,0.4-0.1,0.6
		c-0.1,0.2-0.2,0.4-0.4,0.7c-0.1,0.3-0.3,0.6-0.4,0.9c-0.1,0.3-0.2,0.7-0.3,1.2c1-1.2,2.1-2.2,3.3-2.9s2.3-1.1,3.3-1.1
		c1.1,0,2,0.3,2.6,0.8c0.6,0.6,0.9,1.3,0.9,2.2c1-0.9,2-1.6,2.9-2.2c1-0.6,1.9-0.8,2.8-0.8c0.9,0,1.6,0.2,2.2,0.6
		c0.6,0.4,1,0.9,1.2,1.5c0.3,0.9,0.4,1.8,0.1,2.8c-0.2,1-0.6,2-1,3.1c-0.4,1.1-0.8,2.1-1.2,3.1c-0.4,1-0.5,1.9-0.4,2.7
		c0.1,0.2,0.2,0.4,0.3,0.5c0.1,0.1,0.4,0.2,0.7,0.2c0.6,0,1.3-0.4,2.2-1.3c0.9-0.9,1.8-2,2.7-3.4c0.2-0.3,0.5-0.5,0.7-0.5
		c0.3,0,0.6,0,0.9,0.2c0.3,0.1,0.4,0.3,0.5,0.5c0.1,0.2,0.1,0.5,0,0.7c-0.1,0.7-0.4,1.5-1,2.3c-0.6,0.9-1.3,1.7-2.2,2.6
		c-0.9,0.8-1.8,1.5-2.9,2.1c-1,0.6-2,0.8-2.9,0.8c-1.3,0-2.4-0.2-3.3-0.7c-0.9-0.5-1.4-1.3-1.6-2.3c-0.1-0.8,0-1.6,0.3-2.6
		c0.3-1,0.6-2,1-2.9c0.4-1,0.7-1.8,0.9-2.6s0.3-1.3,0.1-1.7c-0.1-0.2-0.3-0.2-0.5-0.2c-0.2,0.1-0.4,0.2-0.7,0.2
		c-0.9,0.3-1.6,0.9-2.1,1.8c-0.6,0.9-1,1.9-1.4,3c-0.4,1.1-0.7,2.3-0.9,3.5c-0.2,1.2-0.4,2.2-0.5,3.1c-0.1,0.6-0.2,0.9-0.5,1.1
		c-0.3,0.2-0.7,0.3-1.3,0.3c-0.9,0-1.6-0.1-2.4-0.4c-0.7-0.2-1.2-0.8-1.5-1.6c0-1,0.1-2.1,0.4-3.2c0.3-1.1,0.6-2.1,0.9-3.1
		c0.3-1,0.6-1.9,0.9-2.7c0.3-0.8,0.4-1.4,0.3-1.9c-0.1-0.1-0.4-0.1-0.6-0.1c-0.3,0-0.5,0-0.8,0.1c-0.8,0.3-1.4,0.8-1.9,1.6
		c-0.5,0.8-1,1.7-1.3,2.7s-0.6,2.1-0.8,3.1c-0.2,1.1-0.4,2-0.5,2.8c-0.1,0.4-0.2,0.9-0.3,1.3c-0.1,0.5-0.3,0.8-0.7,0.9
		c-0.1,0.1-0.1,0.1-0.2,0.1c-0.1,0-0.2,0-0.3,0.1c-0.1,0-0.3,0-0.6,0c-0.3,0-0.6,0-0.9-0.1c-0.4-0.1-0.7-0.2-1.1-0.4
		c-0.4-0.2-0.7-0.5-0.9-1c-0.3-0.5-0.4-1-0.5-1.6c-0.1-0.6-0.1-1.3-0.1-2c0-0.7,0.1-1.4,0.1-2C70,138.4,70,137.7,70.1,137.2z"/>
	<path class="st6" d="M123.2,138.5c0.1,0.6-0.2,1.4-0.8,2.3s-1.3,1.8-2.2,2.6c-0.9,0.8-1.9,1.5-2.9,2.1c-1.1,0.6-2,0.9-2.9,0.9
		c-1.1,0-2.1-0.2-2.8-0.7c-0.7-0.4-1.2-1.3-1.4-2.5c-0.7,1.1-1.6,1.9-2.6,2.5c-1,0.5-1.9,0.8-2.8,0.9c-1.4,0-2.7-0.4-3.7-1.2
		c-1-0.8-1.7-2-2-3.7c-0.2-1.5,0-3.1,0.6-4.7c0.6-1.6,1.5-3.1,2.7-4.5c1.1-1.3,2.4-2.5,3.9-3.3c1.4-0.9,2.8-1.3,4.1-1.3
		c0.3,0,0.6,0,0.9,0.1c0.3,0.1,0.5,0.2,0.8,0.2l0.4-1.2c0.1-0.2,0.2-0.3,0.5-0.4c0.3-0.1,0.5-0.2,0.7-0.2c0.4,0,0.8,0.1,1.3,0.2
		c0.5,0.1,0.9,0.3,1.3,0.5c0.4,0.2,0.8,0.5,1.1,0.7c0.3,0.3,0.5,0.6,0.7,1c0,0.4-0.2,1.3-0.5,2.9c-0.3,1.6-0.9,3.9-1.6,7
		c-0.2,0.9-0.4,1.8-0.5,2.7c0,0.5,0.4,0.7,1,0.7c0.6,0,1.3-0.3,2-0.9c0.7-0.6,1.4-1.4,2.2-2.3l1-1.3c0.2-0.2,0.5-0.4,0.7-0.4
		c0.2,0,0.4,0.1,0.6,0.4C123,138,123.1,138.2,123.2,138.5z M107.1,141.8c0.6,0,1.1-0.2,1.5-0.4c0.4-0.2,0.7-0.5,0.9-0.9
		c0.2-0.4,0.4-0.8,0.5-1.3c0.1-0.5,0.3-1,0.4-1.5c0.2-1.1,0.5-2.3,0.7-3.4c0.2-1.1,0.5-2.2,0.7-3.3c-0.1-0.2-0.5-0.3-1-0.2
		c-0.8,0.2-1.5,0.6-2.2,1.4c-0.7,0.7-1.3,1.6-1.8,2.6c-0.5,1-0.9,2-1.1,2.9c-0.2,1-0.3,1.8-0.2,2.6c0.1,0.6,0.3,1,0.5,1.2
		C106.3,141.7,106.7,141.8,107.1,141.8z"/>
	<path class="st6" d="M142.1,138.4c0,0.5-0.2,1.1-0.7,1.8c-0.4,0.7-1,1.5-1.7,2.2c-0.7,0.7-1.5,1.4-2.4,2s-1.8,1.1-2.9,1.4
		c-1,0.4-2.1,0.5-3.2,0.5c-1.2,0-2.1-0.2-2.7-0.7c-0.6-0.5-1-1.1-1.1-1.8c0-0.1-0.1-0.3-0.1-0.5s0-0.4,0.1-0.6s0.2-0.4,0.4-0.5
		c0.2-0.1,0.4-0.2,0.7-0.3c0.4-0.5,0.8-1.1,1.2-1.9c0.3-0.8,0.6-1.6,0.8-2.4c0.2-0.8,0.4-1.5,0.4-2.2s0.1-1.1,0.1-1.3
		c-0.1-0.3-0.1-0.6-0.2-0.8s-0.3-0.3-0.6-0.3c-0.5,0-1,0.2-1.5,0.7c-0.5,0.5-1,1.1-1.3,1.8c-0.7,1.1-1.2,2.3-1.6,3.5
		c-0.4,1.3-0.6,2.6-0.8,4s-0.2,2.9-0.2,4.4c0,1.5,0.1,3.1,0.2,4.7c0.1,0.8,0.2,1.4,0.3,2s0.3,1.1,0.3,1.7c0.1,0.8,0,1.3-0.5,1.6
		c-0.4,0.3-1,0.5-1.7,0.5c-0.9,0-1.8-0.2-2.6-0.5c-0.8-0.4-1.5-1.1-1.9-2.3c-0.1-0.4-0.3-0.7-0.3-1.1c-0.1-0.4-0.1-0.9-0.2-1.4
		c-0.2-2.2-0.1-4.6,0.1-7.2c0.3-2.6,0.7-5.1,1.2-7.5c0.5-2.4,1.2-4.6,1.9-6.5c0.7-1.9,1.5-3.4,2.3-4.3c0.3-0.2,0.7-0.3,1.2-0.4
		c0.4-0.1,1,0,1.6,0.2c0.4,0.1,0.7,0.3,1,0.5c0.3,0.2,0.5,0.5,0.6,0.8c0,0.1-0.1,0.3-0.2,0.5c-0.1,0.2-0.3,0.5-0.4,0.9
		c-0.2,0.3-0.3,0.7-0.4,1s-0.2,0.6-0.2,0.8c0.8-0.9,1.6-1.7,2.5-2.3c0.9-0.6,1.8-0.9,2.8-0.9c1.3,0,2.4,0.3,3,0.9s1.1,1.5,1.2,2.5
		c0.1,0.9,0.1,1.9,0,3.1c-0.2,1.1-0.4,2.2-0.7,3.3c-0.3,1-0.7,2-1.1,2.8c-0.4,0.8-0.7,1.3-1,1.6c0.7,0,1.4-0.1,2-0.4
		c0.6-0.3,1.2-0.6,1.7-1.1c0.5-0.5,1-1,1.5-1.6c0.5-0.6,0.9-1.2,1.3-1.8c0.2-0.2,0.4-0.4,0.6-0.4c0.3,0,0.6,0.1,0.8,0.4
		C141.9,137.6,142.1,138,142.1,138.4z"/>
	<path class="st6" d="M162.8,138.9c0,0.8-0.3,1.5-0.8,2.4c-0.5,0.8-1.2,1.6-2,2.3c-0.8,0.7-1.7,1.3-2.8,1.8c-1,0.5-2,0.8-3,1
		c-0.4,0-0.8,0-1.2,0c-1.6-0.1-2.6-0.8-3.1-2.1c-0.1-0.3-0.2-0.6-0.2-1c-1,1-2,1.8-3.1,2.4c-1.1,0.6-2.1,0.9-3.2,0.9
		c-1.3,0-2.3-0.4-3-1.1c-0.7-0.7-1.2-1.7-1.4-2.9c-0.1-0.6-0.1-1.3-0.1-2.2s0.1-1.8,0.2-2.8c0.1-1,0.3-2,0.5-3.1s0.5-2,0.9-2.9
		c0.4-0.9,0.9-1.6,1.5-2.2c0.6-0.6,1.2-1,2-1.1c1.1-0.1,1.9,0,2.5,0.3c0.5,0.1,0.8,0.4,0.8,0.8c0.1,0.3,0.1,0.5,0.1,0.8
		c0,0.7-0.1,1.5-0.3,2.2s-0.5,1.5-0.8,2.4s-0.6,1.8-0.9,2.9c-0.3,1.1-0.6,2.3-0.7,3.8c0.1,0.5,0.4,0.7,0.9,0.7
		c0.9,0,1.6-0.4,2.2-1.3s1.1-1.8,1.5-2.9c0.5-1.4,1-2.7,1.3-3.9c0.3-1.2,0.7-2.2,1-3s0.7-1.5,1.1-2c0.4-0.5,0.9-0.8,1.6-0.9
		c0.6-0.1,1.3,0,2.2,0.2c0.4,0.1,0.8,0.3,1.2,0.5c0.4,0.2,0.6,0.5,0.6,0.9c0.1,0.9-0.1,1.8-0.3,2.9c-0.3,1.1-0.6,2.1-1,3.2
		c-0.4,1.1-0.7,2.1-1.1,3.1c-0.4,1-0.6,1.8-0.7,2.6c0.1,0.5,0.4,0.7,1,0.7c0.5,0,1.2-0.2,1.9-0.7c0.7-0.5,1.5-1.3,2.4-2.5
		c0.2-0.3,0.5-0.6,0.7-0.9c0.2-0.3,0.4-0.5,0.6-0.5c0.3,0,0.5,0.1,0.8,0.4C162.7,138.2,162.8,138.5,162.8,138.9z"/>
	<path class="st6" d="M182.2,138.4c0,0.5-0.2,1.1-0.7,1.8c-0.4,0.7-1,1.5-1.7,2.2c-0.7,0.7-1.5,1.4-2.4,2s-1.8,1.1-2.9,1.4
		c-1,0.4-2.1,0.5-3.2,0.5c-1.2,0-2.1-0.2-2.7-0.7c-0.6-0.5-1-1.1-1.1-1.8c0-0.1-0.1-0.3-0.1-0.5s0-0.4,0.1-0.6s0.2-0.4,0.4-0.5
		c0.2-0.1,0.4-0.2,0.7-0.3c0.4-0.5,0.8-1.1,1.2-1.9c0.3-0.8,0.6-1.6,0.8-2.4c0.2-0.8,0.4-1.5,0.4-2.2s0.1-1.1,0.1-1.3
		c-0.1-0.3-0.1-0.6-0.2-0.8s-0.3-0.3-0.6-0.3c-0.5,0-1,0.2-1.5,0.7c-0.5,0.5-1,1.1-1.3,1.8c-0.7,1.1-1.2,2.3-1.6,3.5
		c-0.4,1.3-0.6,2.6-0.8,4s-0.2,2.9-0.2,4.4c0,1.5,0.1,3.1,0.2,4.7c0.1,0.8,0.2,1.4,0.3,2s0.3,1.1,0.3,1.7c0.1,0.8,0,1.3-0.5,1.6
		c-0.4,0.3-1,0.5-1.7,0.5c-0.9,0-1.8-0.2-2.6-0.5c-0.8-0.4-1.5-1.1-1.9-2.3c-0.1-0.4-0.3-0.7-0.3-1.1c-0.1-0.4-0.1-0.9-0.2-1.4
		c-0.2-2.2-0.1-4.6,0.1-7.2c0.3-2.6,0.7-5.1,1.2-7.5c0.5-2.4,1.2-4.6,1.9-6.5c0.7-1.9,1.5-3.4,2.3-4.3c0.3-0.2,0.7-0.3,1.2-0.4
		c0.4-0.1,1,0,1.6,0.2c0.4,0.1,0.7,0.3,1,0.5c0.3,0.2,0.5,0.5,0.6,0.8c0,0.1-0.1,0.3-0.2,0.5c-0.1,0.2-0.3,0.5-0.4,0.9
		c-0.2,0.3-0.3,0.7-0.4,1s-0.2,0.6-0.2,0.8c0.8-0.9,1.6-1.7,2.5-2.3c0.9-0.6,1.8-0.9,2.8-0.9c1.3,0,2.4,0.3,3,0.9s1.1,1.5,1.2,2.5
		c0.1,0.9,0.1,1.9,0,3.1c-0.2,1.1-0.4,2.2-0.7,3.3c-0.3,1-0.7,2-1.1,2.8c-0.4,0.8-0.7,1.3-1,1.6c0.7,0,1.4-0.1,2-0.4
		c0.6-0.3,1.2-0.6,1.7-1.1c0.5-0.5,1-1,1.5-1.6c0.5-0.6,0.9-1.2,1.3-1.8c0.2-0.2,0.4-0.4,0.6-0.4c0.3,0,0.6,0.1,0.8,0.4
		C182,137.6,182.1,138,182.2,138.4z"/>
	<path class="st6" d="M197.7,137.1c0.1-0.1,0.2-0.2,0.5-0.2c0.5,0,0.8,0.1,1,0.4c0.2,0.3,0.3,0.6,0.2,1.1c-0.2,0.9-0.6,1.9-1.3,2.8
		c-0.7,0.9-1.6,1.8-2.6,2.6c-1.1,0.8-2.3,1.4-3.6,1.9c-1.3,0.5-2.8,0.7-4.2,0.7c-1.1,0-2-0.1-3-0.4c-0.9-0.3-1.7-0.7-2.4-1.2
		c-0.7-0.5-1.3-1.2-1.8-1.9c-0.5-0.7-0.8-1.6-1-2.5c-0.2-1.3-0.3-2.8-0.1-4.2c0.2-1.5,0.6-2.8,1.3-4c0.4-0.6,0.8-1.2,1.3-1.8
		c0.5-0.6,1.2-1,1.9-1.5c0.7-0.4,1.6-0.8,2.6-1c1-0.2,2-0.4,3.2-0.4c1.7,0,3,0.3,3.8,1c0.9,0.7,1.4,1.6,1.7,2.8c0.1,1.1,0,2-0.5,3
		c-0.5,0.9-1.2,1.7-2,2.4c-0.9,0.7-2,1.2-3.2,1.6c-1.2,0.4-2.5,0.6-3.9,0.6c0.1,1,0.4,1.8,0.9,2.4s1.4,1,2.6,1.1
		c1.8-0.1,3.4-0.6,4.8-1.6C195.4,139.9,196.6,138.6,197.7,137.1z M185.6,136.4c0.7,0.1,1.3,0,2-0.2c0.6-0.2,1.2-0.6,1.6-1
		c0.5-0.4,0.8-0.9,1.1-1.5c0.2-0.6,0.3-1.1,0.2-1.7c-0.1-0.4-0.2-0.6-0.4-0.9c-0.2-0.2-0.5-0.4-0.9-0.4c-0.4,0-0.8,0.1-1.2,0.4
		c-0.4,0.3-0.8,0.7-1.1,1.2c-0.3,0.5-0.6,1.1-0.9,1.8C185.8,134.9,185.6,135.6,185.6,136.4z"/>
	<path class="st6" d="M209.7,146.6c-1.2,0-2.1-0.3-2.8-0.8s-1.3-1.2-1.7-2c-0.5-0.8-0.8-1.7-1.1-2.6c-0.3-1-0.6-1.9-1-2.8
		c-0.2,0.6-0.4,1.2-0.5,1.8c-0.1,0.6-0.2,1.2-0.4,1.7c-0.1,0.4-0.2,0.8-0.2,1.4c-0.1,0.6-0.2,1.1-0.4,1.6c-0.2,0.5-0.5,1-0.8,1.4
		c-0.3,0.4-0.8,0.6-1.4,0.6c-0.3,0-0.7-0.1-1-0.3c-0.4-0.2-0.7-0.5-1-0.8c-0.3-0.3-0.6-0.7-0.8-1.1c-0.2-0.4-0.3-0.8-0.4-1.1
		c-0.2-0.9-0.1-1.9,0.1-2.9c0.3-1,0.5-1.9,0.6-2.9c0.2-1,0.5-2.2,0.7-3.6c0.2-1.4,0.5-2.9,0.9-4.4c0.3-1.5,0.7-3.1,1.1-4.6
		c0.4-1.5,0.8-2.9,1.3-4.2c0.5-1.3,1.1-2.3,1.7-3.2c0.6-0.9,1.3-1.4,2.1-1.6c0.5-0.1,1-0.1,1.5,0s1.1,0.3,1.6,0.6
		c0.5,0.3,0.9,0.6,1.3,1c0.4,0.4,0.6,0.9,0.7,1.3c0.1,0.7-0.1,1.3-0.7,2c-0.4,0.6-0.9,1.3-1.4,2.2c-0.5,0.9-1,2-1.4,3.1
		c-0.5,1.2-0.9,2.4-1.3,3.6c-0.4,1.2-0.7,2.5-1,3.6c0.9-0.1,1.5-0.3,2.1-0.8c0.5-0.5,1-1,1.5-1.6c0.4-0.6,0.9-1.2,1.4-1.7
		c0.5-0.5,1.1-0.8,1.9-0.9c0.7-0.1,1.4,0,2,0.1c0.6,0.2,1,0.5,1.3,0.9c0.3,0.4,0.5,0.7,0.5,1.1c0.2,1.4-0.2,2.7-1.4,3.7
		c-1.2,1.1-2.9,2-5.2,2.8c0.2,0.6,0.5,1.2,0.7,1.8c0.3,0.6,0.6,1.1,0.9,1.6c0.3,0.5,0.6,0.9,1,1.2c0.4,0.3,0.7,0.4,1.2,0.4
		c0.3,0,0.7,0,1.1-0.1c0.4-0.1,0.9-0.3,1.3-0.6c0.5-0.4,0.9-0.8,1.3-1.2c0.4-0.4,0.7-0.9,1.1-1.2c0.3-0.4,0.6-0.7,0.8-0.9
		c0.2-0.2,0.4-0.4,0.5-0.4c0.3,0,0.6,0.1,0.9,0.2c0.3,0.1,0.5,0.4,0.5,0.7c0,0.6-0.2,1.4-0.8,2.3c-0.6,0.9-1.3,1.8-2.3,2.6
		c-0.9,0.8-1.9,1.5-3.1,2.1C211.8,146.3,210.8,146.6,209.7,146.6z"/>
</g>
<rect x="23.8" y="160.7" class="st4" width="185.8" height="17.7"/>
<text transform="matrix(1 0 0 1 47.3553 169.6463)" class="st7 st8 st9">- údržba travních ploch -</text>
</svg>
