<?xml version="1.0" encoding="utf-8"?>
<!-- Generator: Adobe Illustrator 21.1.0, SVG Export Plug-In . SVG Version: 6.00 Build 0)  -->
<svg version="1.1" id="Vrstva_1" xmlns="http://www.w3.org/2000/svg" xmlns:xlink="http://www.w3.org/1999/xlink" x="0px" y="0px"
	 viewBox="0 0 167.6 72.5" style="enable-background:new 0 0 167.6 72.5;" xml:space="preserve">
<style type="text/css">
	.st0{fill:#4FCC3E;}
	.st1{fill:#5DBF41;}
	.st2{fill:#55A53A;}
	.st3{enable-background:new    ;}
	.st4{fill:#243D18;}
</style>
<path class="st0" d="M8.9,55.6h11.7C20.5,55.6,21,22,0,9.9C0,9.9,14.9,26.2,8.9,55.6z"/>
<path class="st1" d="M28.6,55.6H14.5c0,0-0.6-40.8,25-55.6C39.4,0,21.3,19.9,28.6,55.6z"/>
<path class="st2" d="M34.8,55.6H24.6c0,0-0.4-29.3,17.9-39.9C42.5,15.7,29.5,30,34.8,55.6z"/>
<g class="st3">
	<path class="st4" d="M51.3,27.9c1.6,0.2,3,0.6,4.2,1.4s2.1,1.6,2.8,2.7s1.2,2.2,1.5,3.5c0.3,1.3,0.3,2.6,0.2,3.9
		c-0.1,1.1-0.4,2.2-0.9,3.3s-1.1,2.1-1.8,2.9c-0.8,0.9-1.7,1.6-2.8,2.2c-1.1,0.6-2.3,1-3.7,1.1c-0.3,0-0.6,0.1-1,0.1
		c-0.4,0-0.8,0-1.2,0l-1.1-0.1c0,0.4-0.1,0.7-0.3,0.8c-0.2,0.2-0.5,0.3-0.9,0.3c-0.8,0-1.4-0.3-1.7-1c0-0.1-0.1-0.2-0.1-0.3
		c0-0.1-0.1-0.2-0.1-0.3c-0.5-0.1-0.9-0.3-1.2-0.6c-0.3-0.2-0.5-0.5-0.5-0.9c0-0.3,0.1-0.5,0.4-0.6c0.2-0.1,0.5-0.1,1,0
		c-0.1-0.9-0.1-1.9,0-2.9c0.1-1,0.2-2,0.3-3c0.1-1,0.3-1.9,0.5-2.8s0.4-1.6,0.5-2.2c0.2-0.6,0.4-1.2,0.6-1.7c0.2-0.5,0.5-1,0.8-1.5
		c-0.8,0.2-1.5,0.4-2.1,0.6C44,32.9,43.5,33,43.1,33c-0.5,0-0.8,0-1.1-0.1c-0.2-0.1-0.4-0.2-0.5-0.4s-0.1-0.3-0.2-0.5
		c0-0.2,0-0.3,0-0.5c0-0.5,0.1-1,0.4-1.4c0.3-0.4,0.7-0.8,1.2-1.1c0.5-0.3,1.1-0.6,1.8-0.8c0.7-0.2,1.4-0.4,2.1-0.5
		c0.7-0.1,1.5-0.2,2.2-0.2C49.9,27.8,50.6,27.8,51.3,27.9z M55.9,39.4c0-1-0.1-1.9-0.3-2.8c-0.2-0.9-0.6-1.7-1.1-2.4
		c-0.5-0.7-1.1-1.2-1.8-1.7c-0.7-0.4-1.5-0.7-2.4-0.8c0.4,0.3,0.7,0.7,0.8,1.1c0,0.1,0,0.4-0.1,0.6s-0.2,0.5-0.3,0.8
		c-0.3,0.7-0.7,1.5-1,2.5c-0.3,0.9-0.6,1.9-0.9,3s-0.5,2.2-0.8,3.3c-0.2,1.2-0.4,2.3-0.5,3.5h0.2c0.8,0,1.5-0.1,2.1-0.2
		c0.9-0.1,1.7-0.4,2.4-0.7c0.7-0.4,1.4-0.9,1.9-1.4s0.9-1.3,1.2-2.1C55.7,41.3,55.9,40.4,55.9,39.4z"/>
	<path class="st4" d="M70.6,45.1c-0.3,0.4-0.6,0.9-1,1.4c-0.4,0.5-0.8,0.9-1.3,1.3c-0.5,0.4-1,0.7-1.6,0.9c-0.6,0.2-1.2,0.4-1.9,0.4
		c-0.6,0-1.1-0.1-1.6-0.3c-0.5-0.2-0.9-0.5-1.3-0.8c-0.4-0.3-0.7-0.7-0.9-1.1c-0.3-0.4-0.4-0.9-0.5-1.4c-0.1-0.9-0.1-1.9,0.2-2.9
		s0.7-1.8,1.3-2.6s1.2-1.4,2-1.9s1.6-0.8,2.4-0.8c0.5,0,0.9,0.1,1.3,0.4c0.3-0.1,0.6-0.1,0.9-0.1c0.8,0,1.4,0.2,1.8,0.6
		c0.4,0.4,0.7,0.9,0.9,1.5c0.2,0.6,0.2,1.2,0.2,1.9c0,0.7-0.2,1.3-0.4,1.8c0.2,0.2,0.5,0.3,0.8,0.3c0.4,0,0.7-0.1,1-0.4
		c0.3-0.3,0.5-0.6,0.9-1c0.2-0.2,0.3-0.3,0.4-0.3c0.2,0,0.4,0.1,0.5,0.2c0.1,0.1,0.2,0.3,0.2,0.4c0,0.3,0,0.6-0.2,1
		c-0.1,0.3-0.3,0.7-0.6,0.9c-0.3,0.3-0.6,0.5-1,0.7c-0.4,0.2-0.8,0.3-1.2,0.3c-0.2,0-0.5,0-0.7-0.1S70.9,45.2,70.6,45.1z M65.7,46.5
		c0.4,0,0.7-0.2,1.1-0.4c0.3-0.3,0.6-0.6,0.8-0.9c0.2-0.4,0.4-0.8,0.5-1.3c0.1-0.5,0.2-0.9,0.2-1.4c-0.1-0.1-0.3-0.3-0.4-0.5
		c-0.1-0.2-0.3-0.4-0.4-0.7c-0.1-0.2-0.2-0.5-0.3-0.8C67,40.2,67,40,66.9,39.7c0-0.1,0-0.2,0-0.3c0-0.1,0-0.2,0.1-0.2
		c-0.4,0.2-0.8,0.4-1.2,0.8s-0.7,0.8-0.9,1.3c-0.3,0.5-0.5,1-0.6,1.5s-0.2,1-0.1,1.5c0,0.2,0.1,0.5,0.2,0.7c0.1,0.2,0.2,0.4,0.3,0.6
		s0.3,0.3,0.4,0.5C65.2,46.4,65.4,46.5,65.7,46.5z"/>
	<path class="st4" d="M73.3,43.1c0.1-0.8,0.2-1.5,0.4-2.3c0.2-0.8,0.4-1.5,0.6-2.1s0.5-1.1,0.8-1.5c0.3-0.4,0.6-0.6,0.9-0.6
		c0.2,0,0.4,0,0.7,0c0.3,0,0.5,0.1,0.7,0.2c0.3,0.1,0.6,0.2,0.8,0.3c0.2,0.1,0.4,0.3,0.4,0.5c0,0.1,0,0.2-0.1,0.4
		c-0.1,0.1-0.1,0.3-0.2,0.4s-0.2,0.4-0.3,0.6s-0.2,0.5-0.2,0.7c0.6-0.8,1.3-1.4,2.1-1.8c0.8-0.5,1.5-0.7,2.1-0.7
		c0.7,0,1.3,0.2,1.7,0.5c0.4,0.4,0.6,0.8,0.6,1.4c0.6-0.6,1.3-1,1.9-1.4c0.6-0.4,1.2-0.5,1.8-0.5c0.6,0,1,0.1,1.4,0.4
		c0.4,0.2,0.6,0.6,0.8,1c0.2,0.5,0.2,1.1,0.1,1.8c-0.2,0.6-0.4,1.3-0.6,2c-0.3,0.7-0.5,1.3-0.7,2s-0.3,1.2-0.2,1.7
		c0,0.1,0.1,0.3,0.2,0.3c0.1,0.1,0.2,0.1,0.4,0.1c0.4,0,0.9-0.3,1.4-0.8s1.1-1.3,1.7-2.1c0.1-0.2,0.3-0.3,0.5-0.3
		c0.2,0,0.4,0,0.6,0.1c0.2,0.1,0.3,0.2,0.3,0.3c0,0.1,0,0.3,0,0.5c-0.1,0.4-0.3,0.9-0.7,1.5c-0.4,0.6-0.8,1.1-1.4,1.6
		c-0.6,0.5-1.2,1-1.8,1.3c-0.7,0.4-1.3,0.5-1.9,0.5c-0.8,0-1.5-0.2-2.1-0.5c-0.6-0.3-0.9-0.8-1-1.4c-0.1-0.5,0-1,0.2-1.7
		c0.2-0.6,0.4-1.2,0.6-1.8c0.2-0.6,0.4-1.2,0.6-1.6c0.2-0.5,0.2-0.8,0.1-1.1c-0.1-0.1-0.2-0.1-0.3-0.1c-0.1,0-0.3,0.1-0.4,0.2
		c-0.5,0.2-1,0.6-1.3,1.1c-0.4,0.6-0.6,1.2-0.9,1.9s-0.4,1.4-0.5,2.2c-0.1,0.8-0.2,1.4-0.3,2c0,0.4-0.1,0.6-0.3,0.7
		c-0.2,0.1-0.5,0.2-0.8,0.2c-0.5,0-1-0.1-1.5-0.2c-0.5-0.2-0.8-0.5-0.9-1c0-0.6,0.1-1.3,0.3-2c0.2-0.7,0.4-1.3,0.6-2
		c0.2-0.6,0.4-1.2,0.6-1.7s0.2-0.9,0.2-1.2c-0.1,0-0.2-0.1-0.4-0.1c-0.2,0-0.3,0-0.5,0c-0.5,0.2-0.9,0.5-1.2,1
		c-0.3,0.5-0.6,1.1-0.8,1.7s-0.4,1.3-0.5,2c-0.1,0.7-0.2,1.3-0.3,1.7c-0.1,0.3-0.1,0.5-0.2,0.8c-0.1,0.3-0.2,0.5-0.4,0.6
		c0,0-0.1,0.1-0.1,0.1s-0.1,0-0.2,0c-0.1,0-0.2,0-0.4,0c-0.2,0-0.4,0-0.6-0.1s-0.5-0.1-0.7-0.3c-0.2-0.1-0.4-0.3-0.6-0.6
		c-0.2-0.3-0.3-0.6-0.3-1c-0.1-0.4-0.1-0.8-0.1-1.3c0-0.4,0-0.9,0.1-1.3C73.2,43.8,73.3,43.4,73.3,43.1z"/>
	<path class="st4" d="M106.9,43.9c0,0.4-0.1,0.9-0.5,1.5c-0.4,0.6-0.8,1.1-1.4,1.6c-0.6,0.5-1.2,1-1.9,1.3c-0.7,0.4-1.3,0.6-1.8,0.6
		c-0.7,0-1.3-0.1-1.8-0.4s-0.8-0.8-0.9-1.6c-0.4,0.7-1,1.2-1.6,1.6S95.8,49,95.3,49c-0.9,0-1.7-0.2-2.4-0.7
		c-0.7-0.5-1.1-1.3-1.2-2.3c-0.1-1,0-2,0.4-3c0.4-1,1-2,1.7-2.8c0.7-0.9,1.5-1.6,2.4-2.1c0.9-0.5,1.8-0.8,2.6-0.8
		c0.2,0,0.4,0,0.6,0.1c0.2,0,0.3,0.1,0.5,0.2l0.2-0.8c0-0.1,0.1-0.2,0.3-0.3s0.3-0.1,0.5-0.1c0.2,0,0.5,0,0.8,0.1s0.6,0.2,0.8,0.3
		s0.5,0.3,0.7,0.5s0.3,0.4,0.4,0.6c0,0.2-0.1,0.9-0.3,1.8c-0.2,1-0.6,2.5-1,4.4c-0.1,0.6-0.3,1.1-0.3,1.7c0,0.3,0.2,0.5,0.6,0.5
		c0.4,0,0.8-0.2,1.3-0.6c0.4-0.4,0.9-0.9,1.4-1.5l0.6-0.8c0.1-0.1,0.3-0.2,0.5-0.2c0.1,0,0.3,0.1,0.4,0.3
		C106.8,43.6,106.8,43.8,106.9,43.9z M96.7,46c0.4,0,0.7-0.1,0.9-0.2c0.2-0.1,0.4-0.3,0.6-0.6c0.1-0.2,0.2-0.5,0.3-0.8
		c0.1-0.3,0.2-0.6,0.3-1c0.1-0.7,0.3-1.4,0.5-2.1c0.2-0.7,0.3-1.4,0.5-2.1c-0.1-0.1-0.3-0.2-0.6-0.1c-0.5,0.1-1,0.4-1.4,0.9
		c-0.4,0.5-0.8,1-1.1,1.6c-0.3,0.6-0.5,1.2-0.7,1.9c-0.2,0.6-0.2,1.2-0.2,1.6c0.1,0.4,0.2,0.6,0.3,0.8C96.2,45.9,96.4,46,96.7,46z"
		/>
	<path class="st4" d="M118.9,43.8c0,0.3-0.1,0.7-0.4,1.1c-0.3,0.5-0.6,0.9-1.1,1.4s-0.9,0.9-1.5,1.3s-1.2,0.7-1.8,0.9
		c-0.7,0.2-1.3,0.3-2,0.3c-0.7,0-1.3-0.2-1.7-0.5c-0.4-0.3-0.6-0.7-0.7-1.1c0-0.1,0-0.2,0-0.3c0-0.1,0-0.3,0.1-0.4
		c0-0.1,0.1-0.2,0.2-0.3s0.3-0.1,0.5-0.2c0.3-0.3,0.5-0.7,0.7-1.2c0.2-0.5,0.4-1,0.5-1.5s0.2-1,0.3-1.4c0.1-0.4,0.1-0.7,0.1-0.8
		c0-0.2-0.1-0.4-0.2-0.5c-0.1-0.1-0.2-0.2-0.4-0.2c-0.3,0-0.6,0.1-1,0.4s-0.6,0.7-0.8,1.1c-0.4,0.7-0.8,1.4-1,2.2
		c-0.2,0.8-0.4,1.7-0.5,2.6c-0.1,0.9-0.1,1.8-0.1,2.8c0,1,0.1,2,0.1,3c0,0.5,0.1,0.9,0.2,1.3c0.1,0.4,0.2,0.7,0.2,1.1
		c0.1,0.5,0,0.8-0.3,1s-0.6,0.3-1.1,0.3c-0.6,0-1.2-0.1-1.7-0.3c-0.5-0.2-0.9-0.7-1.2-1.5c-0.1-0.2-0.2-0.5-0.2-0.7
		c0-0.3-0.1-0.5-0.1-0.9c-0.1-1.4-0.1-2.9,0.1-4.6c0.2-1.6,0.4-3.2,0.8-4.8s0.7-2.9,1.2-4.1c0.5-1.2,0.9-2.1,1.4-2.7
		c0.2-0.1,0.5-0.2,0.8-0.2c0.3,0,0.6,0,1,0.1c0.2,0.1,0.4,0.2,0.6,0.3c0.2,0.1,0.3,0.3,0.3,0.5c0,0.1,0,0.2-0.1,0.3
		c-0.1,0.2-0.2,0.3-0.3,0.5c-0.1,0.2-0.2,0.4-0.3,0.6c-0.1,0.2-0.1,0.4-0.1,0.5c0.5-0.6,1-1.1,1.6-1.5c0.6-0.4,1.2-0.6,1.8-0.6
		c0.9,0,1.5,0.2,1.9,0.6c0.4,0.4,0.7,0.9,0.8,1.6c0.1,0.6,0.1,1.2,0,1.9c-0.1,0.7-0.3,1.4-0.5,2.1c-0.2,0.7-0.4,1.2-0.7,1.8
		c-0.2,0.5-0.4,0.8-0.6,1c0.5,0,0.9-0.1,1.3-0.3c0.4-0.2,0.8-0.4,1.1-0.7s0.6-0.6,0.9-1s0.6-0.8,0.8-1.1c0.1-0.1,0.3-0.2,0.4-0.2
		c0.2,0,0.4,0.1,0.5,0.3C118.7,43.4,118.8,43.6,118.9,43.8z"/>
	<path class="st4" d="M131.9,44.1c0,0.5-0.2,1-0.5,1.5c-0.3,0.5-0.7,1-1.3,1.4c-0.5,0.4-1.1,0.8-1.7,1.1c-0.6,0.3-1.3,0.5-1.9,0.6
		c-0.3,0-0.5,0-0.8,0c-1-0.1-1.7-0.5-1.9-1.3c-0.1-0.2-0.1-0.4-0.1-0.6c-0.6,0.6-1.3,1.1-2,1.5c-0.7,0.4-1.4,0.6-2,0.6
		c-0.8,0-1.4-0.2-1.9-0.7s-0.8-1.1-0.9-1.8c-0.1-0.4-0.1-0.8-0.1-1.4s0-1.2,0.1-1.8c0.1-0.6,0.2-1.3,0.3-1.9
		c0.1-0.7,0.3-1.3,0.6-1.8c0.2-0.6,0.6-1,0.9-1.4c0.4-0.4,0.8-0.6,1.3-0.7c0.7-0.1,1.2,0,1.6,0.2c0.3,0.1,0.5,0.3,0.5,0.5
		c0.1,0.2,0.1,0.3,0.1,0.5c0,0.5-0.1,0.9-0.2,1.4c-0.1,0.5-0.3,1-0.5,1.5c-0.2,0.5-0.4,1.2-0.6,1.8c-0.2,0.7-0.3,1.5-0.5,2.4
		c0,0.3,0.2,0.5,0.6,0.5c0.5,0,1-0.3,1.4-0.8c0.4-0.5,0.7-1.1,0.9-1.9c0.3-0.9,0.6-1.7,0.8-2.5s0.4-1.4,0.6-1.9
		c0.2-0.5,0.4-1,0.7-1.3c0.3-0.3,0.6-0.5,1-0.6c0.4,0,0.8,0,1.4,0.1c0.3,0.1,0.5,0.2,0.8,0.3c0.2,0.1,0.4,0.3,0.4,0.6
		c0,0.6,0,1.2-0.2,1.8c-0.2,0.7-0.4,1.3-0.6,2s-0.5,1.3-0.7,1.9c-0.2,0.6-0.4,1.2-0.4,1.6c0.1,0.3,0.3,0.5,0.6,0.5
		c0.3,0,0.7-0.2,1.2-0.5c0.5-0.3,1-0.8,1.5-1.6c0.1-0.2,0.3-0.4,0.4-0.6c0.1-0.2,0.3-0.3,0.4-0.3c0.2,0,0.3,0.1,0.5,0.2
		S131.9,43.9,131.9,44.1z"/>
	<path class="st4" d="M144.2,43.8c0,0.3-0.1,0.7-0.4,1.1c-0.3,0.5-0.6,0.9-1.1,1.4s-0.9,0.9-1.5,1.3s-1.2,0.7-1.8,0.9
		c-0.7,0.2-1.3,0.3-2,0.3c-0.7,0-1.3-0.2-1.7-0.5c-0.4-0.3-0.6-0.7-0.7-1.1c0-0.1,0-0.2,0-0.3c0-0.1,0-0.3,0.1-0.4
		c0-0.1,0.1-0.2,0.2-0.3c0.1-0.1,0.3-0.1,0.5-0.2c0.3-0.3,0.5-0.7,0.7-1.2c0.2-0.5,0.4-1,0.5-1.5c0.1-0.5,0.2-1,0.3-1.4
		c0.1-0.4,0.1-0.7,0.1-0.8c0-0.2-0.1-0.4-0.2-0.5c-0.1-0.1-0.2-0.2-0.4-0.2c-0.3,0-0.6,0.1-1,0.4c-0.3,0.3-0.6,0.7-0.8,1.1
		c-0.4,0.7-0.8,1.4-1,2.2c-0.2,0.8-0.4,1.7-0.5,2.6c-0.1,0.9-0.1,1.8-0.1,2.8c0,1,0.1,2,0.1,3c0,0.5,0.1,0.9,0.2,1.3
		c0.1,0.4,0.2,0.7,0.2,1.1c0.1,0.5,0,0.8-0.3,1s-0.6,0.3-1.1,0.3c-0.6,0-1.2-0.1-1.7-0.3c-0.5-0.2-0.9-0.7-1.2-1.5
		c-0.1-0.2-0.2-0.5-0.2-0.7c0-0.3-0.1-0.5-0.1-0.9c-0.1-1.4-0.1-2.9,0.1-4.6s0.4-3.2,0.8-4.8s0.7-2.9,1.2-4.1
		c0.5-1.2,0.9-2.1,1.4-2.7c0.2-0.1,0.5-0.2,0.8-0.2c0.3,0,0.6,0,1,0.1c0.2,0.1,0.4,0.2,0.6,0.3c0.2,0.1,0.3,0.3,0.3,0.5
		c0,0.1,0,0.2-0.1,0.3c-0.1,0.2-0.2,0.3-0.3,0.5c-0.1,0.2-0.2,0.4-0.3,0.6c-0.1,0.2-0.1,0.4-0.1,0.5c0.5-0.6,1-1.1,1.6-1.5
		c0.6-0.4,1.2-0.6,1.8-0.6c0.9,0,1.5,0.2,1.9,0.6c0.4,0.4,0.7,0.9,0.8,1.6c0.1,0.6,0.1,1.2,0,1.9c-0.1,0.7-0.3,1.4-0.5,2.1
		c-0.2,0.7-0.4,1.2-0.7,1.8s-0.4,0.8-0.6,1c0.5,0,0.9-0.1,1.3-0.3c0.4-0.2,0.8-0.4,1.1-0.7s0.6-0.6,0.9-1c0.3-0.4,0.6-0.8,0.8-1.1
		c0.1-0.1,0.3-0.2,0.4-0.2c0.2,0,0.4,0.1,0.5,0.3C144.1,43.4,144.2,43.6,144.2,43.8z"/>
	<path class="st4" d="M154,43.1c0.1-0.1,0.2-0.1,0.3-0.1c0.3,0,0.5,0.1,0.7,0.3c0.1,0.2,0.2,0.4,0.1,0.7c-0.1,0.6-0.4,1.2-0.8,1.8
		c-0.4,0.6-1,1.1-1.7,1.6c-0.7,0.5-1.4,0.9-2.3,1.2c-0.9,0.3-1.7,0.5-2.7,0.5c-0.7,0-1.3-0.1-1.9-0.3c-0.6-0.2-1.1-0.4-1.5-0.8
		s-0.8-0.7-1.1-1.2s-0.5-1-0.6-1.6c-0.1-0.9-0.2-1.7,0-2.7c0.1-0.9,0.4-1.8,0.8-2.5c0.2-0.4,0.5-0.8,0.8-1.1s0.8-0.7,1.2-0.9
		c0.5-0.3,1-0.5,1.6-0.6c0.6-0.2,1.3-0.2,2-0.2c1.1,0,1.9,0.2,2.4,0.7c0.6,0.4,0.9,1,1,1.7c0.1,0.7,0,1.3-0.3,1.9
		c-0.3,0.6-0.7,1.1-1.3,1.5c-0.6,0.4-1.2,0.8-2,1c-0.8,0.3-1.6,0.4-2.4,0.4c0.1,0.6,0.2,1.1,0.6,1.5c0.3,0.4,0.9,0.6,1.6,0.7
		c1.1,0,2.1-0.4,3-1C152.6,44.8,153.3,44,154,43.1z M146.3,42.6c0.4,0.1,0.8,0,1.2-0.2c0.4-0.2,0.7-0.4,1-0.7c0.3-0.3,0.5-0.6,0.7-1
		c0.2-0.4,0.2-0.7,0.2-1c0-0.2-0.1-0.4-0.2-0.6c-0.1-0.1-0.3-0.2-0.6-0.2c-0.3,0-0.5,0.1-0.8,0.3c-0.3,0.2-0.5,0.4-0.7,0.8
		c-0.2,0.3-0.4,0.7-0.5,1.1C146.5,41.6,146.4,42.1,146.3,42.6z"/>
	<path class="st4" d="M161.6,49c-0.7,0-1.3-0.2-1.8-0.5s-0.8-0.7-1.1-1.2c-0.3-0.5-0.5-1.1-0.7-1.7c-0.2-0.6-0.4-1.2-0.6-1.8
		c-0.1,0.4-0.2,0.7-0.3,1.1c-0.1,0.4-0.1,0.7-0.2,1.1c-0.1,0.2-0.1,0.5-0.2,0.9c0,0.4-0.1,0.7-0.3,1s-0.3,0.6-0.5,0.9
		c-0.2,0.2-0.5,0.4-0.9,0.4c-0.2,0-0.4-0.1-0.7-0.2c-0.2-0.1-0.4-0.3-0.6-0.5c-0.2-0.2-0.4-0.4-0.5-0.7c-0.1-0.3-0.2-0.5-0.2-0.7
		c-0.1-0.6-0.1-1.2,0.1-1.8s0.3-1.2,0.4-1.8c0.1-0.6,0.3-1.4,0.5-2.3c0.2-0.9,0.3-1.8,0.5-2.8c0.2-1,0.4-1.9,0.7-2.9
		c0.2-1,0.5-1.9,0.8-2.7c0.3-0.8,0.7-1.5,1.1-2c0.4-0.5,0.8-0.9,1.3-1c0.3-0.1,0.6-0.1,1,0s0.7,0.2,1,0.4c0.3,0.2,0.6,0.4,0.8,0.7
		c0.2,0.3,0.4,0.5,0.4,0.8c0.1,0.4-0.1,0.8-0.4,1.3c-0.3,0.4-0.6,0.8-0.9,1.4s-0.6,1.3-0.9,2c-0.3,0.7-0.6,1.5-0.8,2.3
		c-0.2,0.8-0.5,1.6-0.6,2.3c0.5,0,1-0.2,1.3-0.5c0.3-0.3,0.6-0.6,0.9-1c0.3-0.4,0.6-0.7,0.9-1.1c0.3-0.3,0.7-0.5,1.2-0.6
		c0.4-0.1,0.9,0,1.3,0.1c0.4,0.1,0.6,0.3,0.8,0.5c0.2,0.2,0.3,0.5,0.3,0.7c0.1,0.9-0.1,1.7-0.9,2.4c-0.7,0.7-1.8,1.3-3.3,1.8
		c0.1,0.4,0.3,0.8,0.5,1.1s0.3,0.7,0.5,1c0.2,0.3,0.4,0.6,0.6,0.7s0.5,0.3,0.8,0.3c0.2,0,0.4,0,0.7-0.1c0.3,0,0.5-0.2,0.8-0.4
		c0.3-0.2,0.6-0.5,0.8-0.8c0.2-0.3,0.5-0.5,0.7-0.8c0.2-0.2,0.4-0.4,0.5-0.6c0.1-0.2,0.3-0.2,0.3-0.2c0.2,0,0.4,0,0.6,0.1
		s0.3,0.2,0.3,0.4c0,0.4-0.2,0.9-0.5,1.5c-0.4,0.6-0.8,1.1-1.4,1.6c-0.6,0.5-1.2,1-1.9,1.3C163,48.8,162.3,49,161.6,49z"/>
</g>
</svg>
